<svg xmlns="http://www.w3.org/2000/svg" viewBox="0 0 200 200" width="200" height="200">
  <defs>
    <style>
      .navy{fill:#0B2A4A;}
      .orange{fill:#F4862E;}
      .white{fill:#FFFFFF;}
      .bg{fill:#0B2A4A;}
    </style>
  </defs>
  <circle cx="100" cy="100" r="98" class="bg"/>
  <g transform="translate(20,30)">
    <rect x="0" y="100" width="160" height="20" class="orange"/>
    <rect x="15" y="55" width="100" height="50" rx="7" class="white"/>
    <path d="M115 70 h32 a9 9 0 0 1 9 9 v17 a9 9 0 0 1 -9 9 h-32 z" class="orange"/>
    <rect x="128" y="78" width="16" height="12" rx="2" class="navy"/>
    <g transform="translate(50,68)">
      <rect x="11" y="0" width="6" height="26" class="navy" opacity="0.9"/>
      <rect x="0" y="11" width="28" height="6" class="navy" opacity="0.9"/>
    </g>
    <circle cx="40" cy="108" r="12" class="navy"/>
    <circle cx="40" cy="108" r="5" class="white"/>
    <circle cx="105" cy="108" r="12" class="navy"/>
    <circle cx="105" cy="108" r="5" class="white"/>
    <circle cx="138" cy="108" r="10" class="navy"/>
    <circle cx="138" cy="108" r="4" class="white"/>
  </g>
</svg>
